#!OML:ASF H:\ManfredETheater\Project 1\Capture day 1\Session 1\subject.ASF
:FULLY-SPECIFIED
:DEGREES
195
root -6.72957 16.8269 -22.2261 -184.522 -40.5261 -176.549
lowerback 14.7104 -0.442242 -1.90607
upperback -0.934169 -0.859612 1.08524
thorax -9.24534 -0.302138 2.44456
lowerneck -17.3282 -6.10087 -8.09357
upperneck 11.6836 -7.29266 6.30894
head 6.93262 -3.34545 2.53359
rclavicle -5.2622e-014 2.5842e-015
rhumerus -31.2933 4.79215 -80.9224
rradius 71.5702
rwrist -9.54271
rhand -30.521 2.15722
rfingers 7.12502
rthumb -3.82055 -27.7883
lclavicle -5.2622e-014 2.5842e-015
lhumerus -41.1053 -11.2339 94.9775
lradius 81.2002
lwrist -0.479418
lhand -31.1997 -8.32271
lfingers 7.12502
lthumb -4.47597 21.61
rfemur -24.3028 -0.861928 22.592
rtibia 55.355
rfoot -22.2594 -15.0944
rtoes -20.9081
lfemur -31.1624 -5.35495 -18.2674
ltibia 60.3753
lfoot -23.5003 -6.63015
ltoes 12.088
196
root -6.78797 16.8944 -22.2983 -184.088 -40.4695 -176.652
lowerback 14.4197 -0.429372 -1.9877
upperback -1.00317 -0.845856 1.11861
thorax -9.15366 -0.290165 2.51868
lowerneck -17.2706 -6.07011 -8.04163
upperneck 11.652 -7.26561 6.30066
head 6.9085 -3.33215 2.52736
rclavicle -8.11911e-015 5.36719e-015
rhumerus -31.2184 4.37443 -81.0671
rradius 71.0636
rwrist -9.46282
rhand -30.5504 1.94656
rfingers 7.12502
rthumb -3.849 -27.9984
lclavicle -8.11911e-015 5.36719e-015
lhumerus -41.2998 -10.3444 94.2561
lradius 78.846
lwrist -0.651975
lhand -30.8572 -7.67816
lfingers 7.12502
lthumb -4.14526 22.2613
rfemur -23.82 -0.744867 22.4973
rtibia 54.3554
rfoot -22.1505 -14.9517
rtoes -20.6768
lfemur -30.7096 -5.47158 -18.3461
ltibia 59.487
lfoot -23.3926 -6.41938
ltoes 12.1904
197
root -6.84477 16.9592 -22.3699 -183.654 -40.418 -176.754
lowerback 14.1332 -0.426035 -2.0693
upperback -1.07234 -0.845213 1.14539
thorax -9.06377 -0.284752 2.58864
lowerneck -17.2097 -6.03306 -7.97923
upperneck 11.5955 -7.23273 6.29981
head 6.87527 -3.31514 2.52277
rclavicle -5.98839e-015 -4.77083e-015
rhumerus -31.1607 3.94954 -81.2569
rradius 70.5424
rwrist -9.33688
rhand -30.5325 1.76111
rfingers 7.12502
rthumb -3.83172 -28.1842
lclavicle -5.98839e-015 -4.77083e-015
lhumerus -41.4938 -9.44408 93.5159
lradius 76.5119
lwrist -1.09557
lhand -30.5397 -7.13013
lfingers 7.12502
lthumb -3.83866 22.815
rfemur -23.3539 -0.640023 22.4052
rtibia 53.3685
rfoot -22.0434 -14.8114
rtoes -20.4763
lfemur -30.3202 -5.56265 -18.4124
ltibia 58.677
lfoot -23.2387 -6.27922
ltoes 12.2091
198
root -6.90063 17.0211 -22.4407 -183.221 -40.3568 -176.846
lowerback 13.8404 -0.426875 -2.13764
upperback -1.14397 -0.847837 1.1683
thorax -8.97276 -0.281749 2.64744
lowerneck -17.1328 -5.9923 -7.90987
upperneck 11.512 -7.19695 6.30266
head 6.83033 -3.29655 2.51907
rclavicle 1.42939e-014 -1.39149e-015
rhumerus -31.1381 3.51601 -81.4824
rradius 70.0215
rwrist -9.15892
rhand -30.4712 1.6006
rfingers 7.12502
rthumb -3.77245 -28.3458
lclavicle 1.42939e-014 -1.39149e-015
lhumerus -41.6821 -8.53047 92.7598
lradius 74.1856
lwrist -1.78543
lhand -30.2609 -6.72342
lfingers 7.12502
lthumb -3.56942 23.2264
rfemur -22.9079 -0.542349 22.3231
rtibia 52.3915
rfoot -21.9401 -14.6653
rtoes -20.2859
lfemur -29.9809 -5.62661 -18.4589
ltibia 57.9287
lfoot -23.0748 -6.19686
ltoes 12.2184
199
root -6.95609 17.0804 -22.5117 -182.829 -40.3028 -176.909
lowerback 13.5561 -0.434623 -2.18161
upperback -1.20234 -0.855672 1.19516
thorax -8.87195 -0.282953 2.69768
lowerneck -17.0693 -5.95294 -7.85246
upperneck 11.4232 -7.16048 6.3166
head 6.78683 -3.27701 2.52065
rclavicle 3.56756e-014 -5.56597e-015
rhumerus -31.1381 3.07965 -81.7276
rradius 69.499
rwrist -8.93654
rhand -30.3814 1.46319
rfingers 7.12502
rthumb -3.68579 -28.4847
lclavicle 3.56756e-014 -5.56597e-015
lhumerus -41.8498 -7.61243 91.9912
lradius 71.8618
lwrist -2.66642
lhand -29.9959 -6.54163
lfingers 7.12502
lthumb -3.31351 23.4124
rfemur -22.4388 -0.461118 22.2674
rtibia 51.4184
rfoot -21.8522 -14.5233
rtoes -20.0886
lfemur -29.6404 -5.67738 -18.4769
ltibia 57.2163
lfoot -22.9328 -6.15548
ltoes 12.2278
200
root -7.01142 17.1366 -22.5826 -182.486 -40.2329 -176.933
lowerback 13.2768 -0.44286 -2.19404
upperback -1.24959 -0.858807 1.22951
thorax -8.76225 -0.283764 2.73693
lowerneck -17.0042 -5.91384 -7.80135
upperneck 11.3302 -7.12322 6.33397
head 6.74209 -3.25714 2.52445
rclavicle -6.09523e-014 -9.34288e-015
rhumerus -31.1698 2.65082 -81.989
rradius 68.9792
rwrist -8.67217
rhand -30.276 1.34854
rfingers 7.12502
rthumb -3.58397 -28.6011
lclavicle -6.09523e-014 -9.34288e-015
lhumerus -41.9956 -6.69318 91.2129
lradius 69.5309
lwrist -3.66581
lhand -29.7973 -6.52734
lfingers 7.12502
lthumb -3.12172 23.4295
rfemur -21.9482 -0.380248 22.2491
rtibia 50.4495
rfoot -21.7769 -14.3783
rtoes -19.8692
lfemur -29.28 -5.6895 -18.4635
ltibia 56.5273
lfoot -22.8412 -6.10275
ltoes 12.0773
201
root -7.06696 17.1899 -22.6531 -182.185 -40.1305 -176.922
lowerback 13.0141 -0.446049 -2.16711
upperback -1.30167 -0.84939 1.26498
thorax -8.66851 -0.280128 2.75293
lowerneck -16.9187 -5.87445 -7.74109
upperneck 11.2413 -7.08652 6.33354
head 6.6943 -3.23903 2.52132
rclavicle -5.03174e-015 1.04362e-014
rhumerus -31.2599 2.22851 -82.2662
rradius 68.4738
rwrist -8.38711
rhand -30.1507 1.24165
rfingers 7.12502
rthumb -3.46296 -28.71
lclavicle -5.03174e-015 1.04362e-014
lhumerus -42.1375 -5.7868 90.4257
lradius 67.193
lwrist -4.70597
lhand -29.6277 -6.65391
lfingers 7.12502
lthumb -2.95795 23.3053
rfemur -21.4439 -0.292403 22.262
rtibia 49.4867
rfoot -21.7089 -14.2245
rtoes -19.6521
lfemur -28.8965 -5.65799 -18.4258
ltibia 55.8518
lfoot -22.7992 -6.03392
ltoes 11.8305
202
root -7.12272 17.24 -22.7231 -181.918 -39.9873 -176.882
lowerback 12.7629 -0.440157 -2.10781
upperback -1.35487 -0.823306 1.30272
thorax -8.58388 -0.269835 2.74999
lowerneck -16.8183 -5.83606 -7.65846
upperneck 11.1561 -7.05158 6.29612
head 6.64316 -3.22408 2.50268
rclavicle -4.33164e-014 1.21259e-014
rhumerus -31.3956 1.82112 -82.553
rradius 67.9803
rwrist -8.08871
rhand -30.0391 1.16526
rfingers 7.12502
rthumb -3.35518 -28.7881
lclavicle -4.33164e-014 1.21259e-014
lhumerus -42.2657 -4.90082 89.6372
lradius 64.8515
lwrist -5.70021
lhand -29.4978 -6.82979
lfingers 7.12502
lthumb -2.8325 23.1311
rfemur -20.9339 -0.192238 22.3007
rtibia 48.5383
rfoot -21.6478 -14.0564
rtoes -19.4376
lfemur -28.4892 -5.58209 -18.3715
ltibia 55.1902
lfoot -22.8117 -5.92074
ltoes 11.4563
203
root -7.17878 17.2869 -22.7922 -181.671 -39.7998 -176.829
lowerback 12.5258 -0.423227 -2.02135
upperback -1.41603 -0.779376 1.33635
thorax -8.51731 -0.251903 2.72434
lowerneck -16.7022 -5.79838 -7.56452
upperneck 11.0871 -7.01907 6.23948
head 6.59371 -3.21161 2.47597
rclavicle -5.88403e-014 2.48481e-015
rhumerus -31.5753 1.4343 -82.8486
rradius 67.4947
rwrist -7.80357
rhand -29.9433 1.11844
rfingers 7.12502
rthumb -3.26267 -28.8363
lclavicle -5.88403e-014 2.48481e-015
lhumerus -42.3831 -4.04342 88.8535
lradius 62.5181
lwrist -6.59089
lhand -29.3946 -6.9093
lfingers 7.12502
lthumb -2.73277 23.0529
rfemur -20.4303 -0.078313 22.3503
rtibia 47.6141
rfoot -21.5916 -13.8691
rtoes -19.2325
lfemur -28.0658 -5.47285 -18.3144
ltibia 54.5429
lfoot -22.8688 -5.75653
ltoes 11.013
204
root -7.23485 17.3305 -22.8604 -181.426 -39.5748 -176.785
lowerback 12.3004 -0.395289 -1.92993
upperback -1.48353 -0.721277 1.36304
thorax -8.46512 -0.227194 2.6863
lowerneck -16.59 -5.76335 -7.472
upperneck 11.0471 -6.98982 6.17658
head 6.55435 -3.20107 2.44686
rclavicle 4.31549e-014 -2.71341e-014
rhumerus -31.7883 1.07346 -83.1496
rradius 67.02
rwrist -7.53638
rhand -29.8651 1.08925
rfingers 7.12502
rthumb -3.18721 -28.8667
lclavicle 4.31549e-014 -2.71341e-014
lhumerus -42.5021 -3.23081 88.0838
lradius 60.2315
lwrist -7.34559
lhand -29.263 -6.80101
lfingers 7.12502
lthumb -2.60568 23.1628
rfemur -19.9451 0.0457523 22.3901
rtibia 46.7263
rfoot -21.5402 -13.6683
rtoes -19.0609
lfemur -27.6352 -5.34815 -18.2734
ltibia 53.9113
lfoot -22.9556 -5.54518
ltoes 10.5667
205
root -7.29068 17.3711 -22.9276 -181.168 -39.3199 -176.767
lowerback 12.0893 -0.359737 -1.85099
upperback -1.55853 -0.656306 1.37985
thorax -8.42944 -0.19843 2.64416
lowerneck -16.4774 -5.72672 -7.37326
upperneck 11.0294 -6.95954 6.1053
head 6.52154 -3.19035 2.41408
rclavicle -4.72424e-014 -1.42131e-014
rhumerus -32.0247 0.751057 -83.4596
rradius 66.5513
rwrist -7.28931
rhand -29.8035 1.07499
rfingers 7.12502
rthumb -3.12767 -28.8818
lclavicle -4.72424e-014 -1.42131e-014
lhumerus -42.6272 -2.4454 87.3206
lradius 58.01
lwrist -8.00127
lhand -29.026 -6.4773
lfingers 7.12502
lthumb -2.37679 23.4892
rfemur -19.4848 0.180246 22.4053
rtibia 45.8861
rfoot -21.4983 -13.4576
rtoes -18.9124
lfemur -27.2033 -5.22164 -18.2607
ltibia 53.2954
lfoot -23.0583 -5.29921
ltoes 10.1789
206
root -7.34581 17.4086 -22.9937 -180.887 -39.0525 -176.786
lowerback 11.8878 -0.321253 -1.79627
upperback -1.63682 -0.592246 1.38687
thorax -8.40238 -0.169019 2.60598
lowerneck -16.387 -5.69089 -7.2889
upperneck 11.0418 -6.92924 6.04945
head 6.5033 -3.17845 2.38795
rclavicle -1.5735e-014 -3.57812e-015
rhumerus -32.269 0.473448 -83.7775
rradius 66.0925
rwrist -7.05984
rhand -29.7677 1.06692
rfingers 7.12502
rthumb -3.0931 -28.8904
lclavicle -1.5735e-014 -3.57812e-015
lhumerus -42.7289 -1.64101 86.5562
lradius 55.8357
lwrist -8.63517
lhand -28.6684 -6.02004
lfingers 7.12502
lthumb -2.03143 23.95
rfemur -19.0635 0.314657 22.3869
rtibia 45.104
rfoot -21.4657 -13.2446
rtoes -18.7969
lfemur -26.7859 -5.11444 -18.2821
ltibia 52.6966
lfoot -23.1606 -5.0324
ltoes 9.89236
